<svg xmlns="http://www.w3.org/2000/svg" viewBox="0 0 59.29 56.13"><defs><style>.cls-1{fill:none;stroke:#00a79d;stroke-width:3px;}.cls-1,.cls-2{stroke-miterlimit:10;}.cls-2{fill:#ffc517;stroke:#ffc517;}</style></defs><title>Architecture</title><g id="Layer_2" data-name="Layer 2"><g id="Layer_1-2" data-name="Layer 1"><line class="cls-1" x1="1.16" y1="33.66" x2="30.74" y2="2.37"/><line class="cls-1" x1="30.4" y1="0.97" x2="57.99" y2="33.69"/><line class="cls-1" x1="1.5" y1="26.37" x2="1.5" y2="54.63"/><line class="cls-1" x1="5.46" y1="54.08" x2="5.25" y2="18.65"/><line class="cls-1" x1="54.05" y1="54.79" x2="54.05" y2="17.94"/><line class="cls-1" x1="0.29" y1="54.63" x2="59.29" y2="54.63"/><line class="cls-1" x1="16.95" y1="55.13" x2="16.95" y2="8.87"/><line class="cls-1" x1="44.39" y1="54.5" x2="44.39" y2="8.5"/><polygon class="cls-2" points="23.55 13.18 19.52 52.13 22.3 52.13 25.75 26.39 29.6 39.59 31.88 39.59 35.8 25.95 39.17 52.13 41.96 52.13 37.93 13.18 34.99 13.18 30.74 29.54 26.63 13.18 23.55 13.18"/></g></g></svg>