<svg xmlns="http://www.w3.org/2000/svg" viewBox="0 0 34.7 56.03"><defs><style>.cls-1,.cls-2{fill:none;stroke:#00a79d;}.cls-1,.cls-2,.cls-3{stroke-miterlimit:10;}.cls-1{stroke-width:3px;}.cls-3{fill:#ffc517;stroke:#ffc517;}</style></defs><title>Today</title><g id="Layer_2" data-name="Layer 2"><g id="Layer_1-2" data-name="Layer 1"><line class="cls-1" x1="22.25" y1="27.03" x2="0.58" y2="27.03"/><line class="cls-1" x1="20.5" y1="55.53" x2="20.83" y2="27.03"/><line class="cls-2" x1="29.44" y1="10" x2="29.44"/><polygon class="cls-3" points="15.73 16.58 11.7 55.53 14.48 55.53 17.93 29.79 21.78 42.99 24.06 42.99 27.98 29.35 31.36 55.53 34.14 55.53 30.11 16.58 27.18 16.58 22.92 32.94 18.81 16.58 15.73 16.58"/><line class="cls-1" x1="28.78" y1="16.58" x2="28.78" y2="6.58"/><line class="cls-2" x1="16.28" y1="23.11" x2="16.28" y2="20.19"/><line class="cls-2" x1="25.79" y1="28.61" x2="25.75" y2="31.41"/><line class="cls-2" x1="14.47" y1="37.29" x2="14.34" y2="40.19"/><line class="cls-2" x1="27.73" y1="23.86" x2="27.66" y2="26.27"/><line class="cls-2" x1="31.44" y1="45.94" x2="31.61" y2="49.03"/><line class="cls-1" x1="1.5" y1="55.53" x2="1.83" y2="27.03"/><line class="cls-2" x1="8.83" y1="30.36" x2="8.83" y2="36.62"/><line class="cls-2" x1="16.67" y1="48.91" x2="16.67" y2="53.82"/><line class="cls-2" x1="6.46" y1="43.68" x2="6.41" y2="48.64"/></g></g></svg>